<svg width="220" height="220" viewBox="0 0 220 220" xmlns="http://www.w3.org/2000/svg" aria-hidden="true">
  <defs>
    <linearGradient id="petalGrad" x1="0" x2="1" y1="0" y2="1">
      <stop offset="0" stop-color="#ffb4b4"/>
      <stop offset="1" stop-color="#ff9aa2"/>
    </linearGradient>
    <linearGradient id="accentGrad" x1="0" x2="1" y1="1" y2="0">
      <stop offset="0" stop-color="#e7c6ff"/>
      <stop offset="1" stop-color="#a06cd5"/>
    </linearGradient>
    <filter id="soft" x="-20%" y="-20%" width="140%" height="140%">
      <feGaussianBlur in="SourceGraphic" stdDeviation="1.5" />
    </filter>
  </defs>

  <!-- Hojas -->
  <ellipse cx="42" cy="150" rx="16" ry="34" fill="#caffbf" transform="rotate(-30 42 150)" opacity="0.8"/>
  <ellipse cx="82" cy="178" rx="14" ry="28" fill="#caffbf" transform="rotate(20 82 178)" opacity="0.7"/>
  <ellipse cx="58" cy="178" rx="10" ry="22" fill="#b7f3a6" transform="rotate(-10 58 178)" opacity="0.7"/>

  <!-- Flor principal -->
  <g filter="url(#soft)">
    <circle cx="90" cy="100" r="10" fill="#a06cd5"/>
    <g fill="url(#petalGrad)">
      <ellipse cx="90" cy="70" rx="16" ry="24"/>
      <ellipse cx="90" cy="130" rx="16" ry="24"/>
      <ellipse cx="62" cy="100" rx="16" ry="24" transform="rotate(90 62 100)"/>
      <ellipse cx="118" cy="100" rx="16" ry="24" transform="rotate(90 118 100)"/>
      <ellipse cx="72" cy="82" rx="14" ry="20" transform="rotate(45 72 82)"/>
      <ellipse cx="108" cy="118" rx="14" ry="20" transform="rotate(45 108 118)"/>
    </g>
  </g>

  <!-- Flor secundaria -->
  <g opacity="0.9" filter="url(#soft)">
    <circle cx="40" cy="110" r="8" fill="#a06cd5"/>
    <g fill="url(#accentGrad)">
      <ellipse cx="40" cy="90" rx="10" ry="16"/>
      <ellipse cx="40" cy="130" rx="10" ry="16"/>
      <ellipse cx="24" cy="110" rx="10" ry="16" transform="rotate(90 24 110)"/>
      <ellipse cx="56" cy="110" rx="10" ry="16" transform="rotate(90 56 110)"/>
    </g>
  </g>

  <!-- Punteo decorativo -->
  <g fill="#e7c6ff" opacity="0.6">
    <circle cx="130" cy="40" r="3"/>
    <circle cx="150" cy="60" r="2.5"/>
    <circle cx="170" cy="80" r="2.5"/>
    <circle cx="140" cy="90" r="2"/>
    <circle cx="160" cy="50" r="2"/>
  </g>
</svg>
